# Blender v2.79 (sub 0) OBJ File: 'scene.blend'
# www.blender.org
mtllib scene.mtl
o Cube_Cube.001
v -2.000000 -2.000000 -0.409369
v -2.000000 -2.000000 -0.009369
v -2.000000 2.000000 -0.409369
v -2.000000 2.000000 -0.009369
v 2.000000 -2.000000 -0.409369
v 2.000000 -2.000000 -0.009369
v 2.000000 2.000000 -0.409369
v 2.000000 2.000000 -0.009369
v -1.111632 -0.608653 -0.101150
v -1.111632 -0.608653 0.898850
v -0.758078 -0.755099 -0.101150
v -0.758078 -0.755099 0.898850
v -0.611632 -1.108653 -0.101150
v -0.611632 -1.108653 0.898850
v -0.758078 -1.462206 -0.101150
v -0.758078 -1.462206 0.898850
v -1.111632 -1.608653 -0.101150
v -1.111632 -1.608653 0.898850
v -1.465185 -1.462206 -0.101150
v -1.465185 -1.462206 0.898850
v -1.611632 -1.108653 -0.101150
v -1.611632 -1.108653 0.898850
v -1.465185 -0.755099 -0.101150
v -1.465185 -0.755099 0.898850
v 1.163209 -0.608653 -0.101150
v 1.163209 -0.608653 0.898850
v 1.516762 -0.755099 -0.101150
v 1.516762 -0.755099 0.898850
v 1.663209 -1.108653 -0.101150
v 1.663209 -1.108653 0.898850
v 1.516762 -1.462206 -0.101150
v 1.516762 -1.462206 0.898850
v 1.163209 -1.608653 -0.101150
v 1.163209 -1.608653 0.898850
v 0.809656 -1.462206 -0.101150
v 0.809656 -1.462206 0.898850
v 0.663209 -1.108653 -0.101150
v 0.663209 -1.108653 0.898850
v 0.809656 -0.755099 -0.101150
v 0.809656 -0.755099 0.898850
v 1.163209 0.939184 0.428415
v 1.163209 0.939184 0.974621
v 1.356322 0.859194 0.428415
v 1.356322 0.859194 0.974621
v 1.436312 0.666081 0.428415
v 1.436312 0.666081 0.974621
v 1.356322 0.472968 0.428415
v 1.356322 0.472968 0.974621
v 1.163209 0.392978 0.428415
v 1.163209 0.392978 0.974621
v 0.970096 0.472968 0.428415
v 0.970096 0.472968 0.974621
v 0.890106 0.666081 0.428415
v 0.890106 0.666081 0.974621
v 0.970096 0.859194 0.428415
v 0.970096 0.859194 0.974621
v -1.111632 1.720972 -0.101150
v -1.111632 1.720972 0.898850
v -0.758078 1.574526 -0.101150
v -0.758078 1.574526 0.898850
v -0.611632 1.220972 -0.101150
v -0.611632 1.220972 0.898850
v -0.758078 0.867419 -0.101150
v -0.758078 0.867419 0.898850
v -1.111632 0.720972 -0.101150
v -1.111632 0.720972 0.898850
v -1.465185 0.867419 -0.101150
v -1.465185 0.867419 0.898850
v -1.611632 1.220972 -0.101150
v -1.611632 1.220972 0.898850
v -1.465185 1.574526 -0.101150
v -1.465185 1.574526 0.898850
v -1.075693 0.432377 -0.051016
v -0.987048 0.518478 -0.051016
v -0.780074 0.128026 1.006780
v -0.691429 0.214128 1.006780
v 0.317791 -1.002267 -0.051016
v 0.406436 -0.916165 -0.051016
v 0.022172 -0.697916 1.006780
v 0.110817 -0.611814 1.006780
v -0.659891 0.004293 0.105259
v -0.659891 0.004294 0.264620
v -0.571246 0.090395 0.105259
v -0.571246 0.090395 0.663652
v -0.140647 -0.530287 0.105259
v -0.052002 -0.444186 0.105259
v -0.571246 0.090395 0.850505
v -0.659891 0.004293 0.850505
v -0.140647 -0.530287 0.658779
v -0.052002 -0.444186 0.850505
v -0.140647 -0.530287 0.850505
vt 0.000000 0.000000
vt 0.000000 1.000000
vt 1.000000 1.000000
vt 1.000000 0.000000
vt 0.000000 0.000000
vt 0.000000 1.000000
vt 1.000000 1.000000
vt 1.000000 0.000000
vt 0.000000 0.000000
vt 0.000000 1.000000
vt -1.000000 1.000000
vt -1.000000 0.000000
vt 0.000000 0.000000
vt 0.000000 1.000000
vt -1.000000 1.000000
vt -1.000000 0.000000
vt 1.000000 -1.000000
vt 0.000000 -1.000000
vt 0.000000 0.000000
vt -1.000000 0.000000
vt -1.000000 -1.000000
vt 0.000000 -1.000000
vt 0.222092 0.770547
vt 0.222092 3.270547
vt 0.310480 3.270547
vt 0.310480 0.770547
vt 0.311225 0.770547
vt 0.311225 3.270547
vt 0.222837 3.270547
vt 0.222837 0.770547
vt 0.134448 3.270547
vt 0.134448 0.770547
vt 0.310480 0.770547
vt 0.310480 3.270547
vt 0.222092 3.270547
vt 0.222092 0.770547
vt 0.133704 3.270547
vt 0.133704 0.770547
vt 0.134449 0.770547
vt 0.134449 3.270547
vt 0.222837 3.270547
vt 0.222837 0.770547
vt 0.310480 0.311225
vt 0.222092 0.347837
vt 0.133704 0.311225
vt 0.097092 0.222837
vt 0.133704 0.134449
vt 0.222092 0.097837
vt 0.310480 0.134448
vt 0.347092 0.222837
vt 0.311225 3.270547
vt 0.311225 0.770547
vt 0.133704 0.770547
vt 0.133704 3.270547
vt 0.222092 0.347837
vt 0.310480 0.311225
vt 0.347092 0.222837
vt 0.310480 0.134448
vt 0.222092 0.097837
vt 0.133704 0.134449
vt 0.097092 0.222837
vt 0.133704 0.311225
vt 0.790802 0.770547
vt 0.790802 3.270547
vt 0.879191 3.270547
vt 0.879191 0.770547
vt 0.311225 0.770547
vt 0.311225 3.270547
vt 0.222837 3.270547
vt 0.222837 0.770547
vt 0.134448 3.270547
vt 0.134448 0.770547
vt 0.879191 0.770547
vt 0.879191 3.270547
vt 0.790802 3.270547
vt 0.790802 0.770547
vt 0.702414 3.270547
vt 0.702414 0.770547
vt 0.134449 0.770547
vt 0.134449 3.270547
vt 0.222837 3.270547
vt 0.222837 0.770547
vt 0.879191 0.311225
vt 0.790802 0.347837
vt 0.702414 0.311225
vt 0.665802 0.222837
vt 0.702414 0.134449
vt 0.790802 0.097837
vt 0.879191 0.134448
vt 0.915802 0.222837
vt 0.311225 3.270547
vt 0.311225 0.770547
vt 0.702414 0.770547
vt 0.702414 3.270547
vt 0.790802 0.347837
vt 0.879191 0.311225
vt 0.915802 0.222837
vt 0.879191 0.134448
vt 0.790802 0.097837
vt 0.702414 0.134449
vt 0.665802 0.222837
vt 0.702414 0.311225
vt 0.790802 0.770547
vt 0.790802 3.270547
vt 0.879191 3.270547
vt 0.879191 0.770547
vt 0.893631 0.770547
vt 0.893631 3.270547
vt 0.805243 3.270547
vt 0.805243 0.770547
vt 0.716855 3.270547
vt 0.716855 0.770547
vt 0.879191 0.770547
vt 0.879191 3.270547
vt 0.790802 3.270547
vt 0.790802 0.770547
vt 0.702414 3.270547
vt 0.702414 0.770547
vt 0.716855 0.770547
vt 0.716855 3.270547
vt 0.805243 3.270547
vt 0.805243 0.770547
vt 0.879191 0.893631
vt 0.790802 0.930243
vt 0.702414 0.893631
vt 0.665802 0.805243
vt 0.702414 0.716855
vt 0.790802 0.680243
vt 0.879191 0.716855
vt 0.915802 0.805243
vt 0.893631 3.270547
vt 0.893631 0.770547
vt 0.702414 0.770547
vt 0.702414 3.270547
vt 0.790802 0.930243
vt 0.879191 0.893631
vt 0.915802 0.805243
vt 0.879191 0.716855
vt 0.790802 0.680243
vt 0.702414 0.716855
vt 0.665802 0.805243
vt 0.702414 0.893631
vt 0.222092 0.770547
vt 0.222092 3.270547
vt 0.310480 3.270547
vt 0.310480 0.770547
vt 0.893631 0.770547
vt 0.893631 3.270547
vt 0.805243 3.270547
vt 0.805243 0.770547
vt 0.716855 3.270547
vt 0.716855 0.770547
vt 0.310480 0.770547
vt 0.310480 3.270547
vt 0.222092 3.270547
vt 0.222092 0.770547
vt 0.133704 3.270547
vt 0.133704 0.770547
vt 0.716855 0.770547
vt 0.716855 3.270547
vt 0.805243 3.270547
vt 0.805243 0.770547
vt 0.310480 0.893631
vt 0.222092 0.930243
vt 0.133704 0.893631
vt 0.097092 0.805243
vt 0.133704 0.716855
vt 0.222092 0.680243
vt 0.310480 0.716855
vt 0.347092 0.805243
vt 0.893631 3.270547
vt 0.893631 0.770547
vt 0.133704 0.770547
vt 0.133704 3.270547
vt 0.222092 0.930243
vt 0.310480 0.893631
vt 0.347092 0.805243
vt 0.310480 0.716855
vt 0.222092 0.680243
vt 0.133704 0.716855
vt 0.097092 0.805243
vt 0.133704 0.893631
vt 0.000000 0.000000
vt 0.000000 0.000000
vt 0.000000 0.000000
vt 0.000000 0.000000
vt 0.000000 0.000000
vt 0.000000 0.000000
vt 0.000000 0.000000
vt 0.000000 0.000000
vt 0.000000 0.000000
vt 0.000000 0.000000
vt 0.000000 0.000000
vt 0.000000 0.000000
vt 0.000000 0.000000
vt 0.000000 0.000000
vt 0.000000 0.000000
vt 0.000000 0.000000
vt 0.000000 0.000000
vt 0.000000 0.000000
vt 0.000000 0.000000
vn -1.0000 0.0000 0.0000
vn 0.0000 1.0000 0.0000
vn 1.0000 0.0000 0.0000
vn 0.0000 -1.0000 0.0000
vn 0.0000 0.0000 -1.0000
vn 0.0000 -0.0000 1.0000
vn 0.3827 0.9239 0.0000
vn 0.9239 0.3827 0.0000
vn 0.9239 -0.3827 0.0000
vn 0.3827 -0.9239 0.0000
vn -0.3827 -0.9239 0.0000
vn -0.9239 -0.3827 0.0000
vn -0.9239 0.3827 0.0000
vn -0.3827 0.9239 0.0000
vn 0.6467 -0.6658 -0.3723
vn -0.6467 0.6658 -0.3723
vn 0.7173 0.6967 -0.0000
vn -0.7173 -0.6967 0.0000
vn -0.6967 0.7173 0.0000
vn 0.6967 -0.7173 -0.0000
usemtl Material.001
s off
f 1/1/1 2/2/1 4/3/1 3/4/1
f 3/5/2 4/6/2 8/7/2 7/8/2
f 7/9/3 8/10/3 6/11/3 5/12/3
f 5/13/4 6/14/4 2/15/4 1/16/4
f 3/5/5 7/8/5 5/17/5 1/18/5
f 8/19/6 4/20/6 2/21/6 6/22/6
f 9/23/7 10/24/7 12/25/7 11/26/7
f 11/27/8 12/28/8 14/29/8 13/30/8
f 13/30/9 14/29/9 16/31/9 15/32/9
f 15/33/10 16/34/10 18/35/10 17/36/10
f 17/36/11 18/35/11 20/37/11 19/38/11
f 19/39/12 20/40/12 22/41/12 21/42/12
f 12/43/6 10/44/6 24/45/6 22/46/6 20/47/6 18/48/6 16/49/6 14/50/6
f 21/42/13 22/41/13 24/51/13 23/52/13
f 23/53/14 24/54/14 10/24/14 9/23/14
f 9/55/5 11/56/5 13/57/5 15/58/5 17/59/5 19/60/5 21/61/5 23/62/5
f 25/63/7 26/64/7 28/65/7 27/66/7
f 27/67/8 28/68/8 30/69/8 29/70/8
f 29/70/9 30/69/9 32/71/9 31/72/9
f 31/73/10 32/74/10 34/75/10 33/76/10
f 33/76/11 34/75/11 36/77/11 35/78/11
f 35/79/12 36/80/12 38/81/12 37/82/12
f 28/83/6 26/84/6 40/85/6 38/86/6 36/87/6 34/88/6 32/89/6 30/90/6
f 37/82/13 38/81/13 40/91/13 39/92/13
f 39/93/14 40/94/14 26/64/14 25/63/14
f 25/95/5 27/96/5 29/97/5 31/98/5 33/99/5 35/100/5 37/101/5 39/102/5
f 41/103/7 42/104/7 44/105/7 43/106/7
f 43/107/8 44/108/8 46/109/8 45/110/8
f 45/110/9 46/109/9 48/111/9 47/112/9
f 47/113/10 48/114/10 50/115/10 49/116/10
f 49/116/11 50/115/11 52/117/11 51/118/11
f 51/119/12 52/120/12 54/121/12 53/122/12
f 44/123/6 42/124/6 56/125/6 54/126/6 52/127/6 50/128/6 48/129/6 46/130/6
f 53/122/13 54/121/13 56/131/13 55/132/13
f 55/133/14 56/134/14 42/104/14 41/103/14
f 41/135/5 43/136/5 45/137/5 47/138/5 49/139/5 51/140/5 53/141/5 55/142/5
f 57/143/7 58/144/7 60/145/7 59/146/7
f 59/147/8 60/148/8 62/149/8 61/150/8
f 61/150/9 62/149/9 64/151/9 63/152/9
f 63/153/10 64/154/10 66/155/10 65/156/10
f 65/156/11 66/155/11 68/157/11 67/158/11
f 67/159/12 68/160/12 70/161/12 69/162/12
f 60/163/6 58/164/6 72/165/6 70/166/6 68/167/6 66/168/6 64/169/6 62/170/6
f 69/162/13 70/161/13 72/171/13 71/172/13
f 71/173/14 72/174/14 58/144/14 57/143/14
f 57/175/5 59/176/5 61/177/5 63/178/5 65/179/5 67/180/5 69/181/5 71/182/5
f 74/183/15 75/184/15 73/185/15
f 76/186/5 79/187/5 75/184/5
f 79/187/16 78/188/16 77/189/16
f 78/188/6 73/185/6 77/189/6
f 88/190/17 73/185/17 75/184/17
f 83/191/18 84/192/18 74/183/18
f 86/193/19 85/194/19 89/195/19
f 73/185/17 85/194/17 77/189/17
f 90/196/18 80/197/18 76/186/18
f 86/193/6 81/198/6 85/194/6
f 82/199/20 84/192/20 88/190/20
f 87/200/5 91/201/5 88/190/5
f 74/183/15 76/186/15 75/184/15
f 76/186/5 80/197/5 79/187/5
f 79/187/16 80/197/16 78/188/16
f 78/188/6 74/183/6 73/185/6
f 79/187/17 89/195/17 91/201/17
f 88/190/17 82/199/17 73/185/17
f 79/187/17 91/201/17 75/184/17
f 91/201/17 88/190/17 75/184/17
f 78/188/18 80/197/18 90/196/18
f 78/188/18 90/196/18 86/193/18
f 84/192/18 76/186/18 74/183/18
f 78/188/18 86/193/18 74/183/18
f 86/193/18 83/191/18 74/183/18
f 89/195/19 91/201/19 90/196/19
f 90/196/19 86/193/19 89/195/19
f 73/185/17 82/199/17 81/198/17
f 85/194/17 89/195/17 77/189/17
f 89/195/17 79/187/17 77/189/17
f 73/185/17 81/198/17 85/194/17
f 76/186/18 84/192/18 87/200/18
f 87/200/18 90/196/18 76/186/18
f 86/193/6 83/191/6 81/198/6
f 82/199/20 81/198/20 83/191/20
f 83/191/20 84/192/20 82/199/20
f 84/192/20 87/200/20 88/190/20
f 87/200/5 90/196/5 91/201/5
